:SAMPLES-PER-SECOND 30
:FULLY-SPECIFIED
:DEGREES
115
root  -41.8663 38.4405 -7.30802 -77.3826 -86.0165 70.1479
RightUpLeg  -14.3396 4.97858 -10.7664
RightLeg  71.0866 -4.4482 -15.104
RightFoot  -2.81661 -0.0270683 0.109866
RightToes  1.16414e-010 0 -3.6325e-017
Spine  11.9769 1.41381 0.155176
Spine1  6.13355 2.83996 -5.07759
HEad  -19.1699 -2.08842 -0.444637
LeftShoulder1  7.903 -10.7288 -48.4617
LeftArm  -6.73393 28.5587 -23.2712
LeftForeArm  173.689 -67.0648 -157.361
LeftHand  -0.244104 0.0205437 5.32207
RightShoulder  6.9185 9.8664 45.2
RightArm  7.37712 -21.6224 33.9395
RightForeArm  120.679 79.0301 116.49
RightHand  0.318708 -11.0842 -7.48769
LeftUpLeg  -9.72795 8.48094 -10.5768
LeftLeg  35.654 5.89426 4.88839
LeftFoot  -17.9366 0.522583 7.14424
LeftToes  -6.73059e-011 1.31891e-010 -1.28765e-011
116
root  -43.7023 39.0866 -7.18736 -53.2497 -87.8197 46.5594
RightUpLeg  -17.0934 3.03986 -8.17501
RightLeg  63.9143 -5.91003 -13.5277
RightFoot  -3.95496 -0.0710711 0.686467
RightToes  1.16414e-010 0 -3.6325e-017
Spine  10.5046 0.272022 0.17599
Spine1  6.86003 0.7758 -1.67947
HEad  -18.6928 0.201437 -2.14807
LeftShoulder1  8.01714 -11.0925 -47.9317
LeftArm  -4.60813 25.7525 -26.3732
LeftForeArm  177.039 -65.4141 -159.316
LeftHand  -0.244104 0.0205437 5.32207
RightShoulder  6.32202 9.22389 43.2885
RightArm  8.52634 -27.3623 30.8682
RightForeArm  118.484 77.7274 123.033
RightHand  0.378389 -10.3553 -9.73021
LeftUpLeg  -5.08279 7.5915 -8.1136
LeftLeg  31.5181 6.54068 4.65684
LeftFoot  -17.0872 0.433687 6.62433
LeftToes  -6.73059e-011 1.31891e-010 -1.28765e-011
117
root  -45.5654 39.9788 -7.09494 -0.24472 -88.7926 -5.58118
RightUpLeg  -18.1838 0.765392 -5.20226
RightLeg  52.3092 -7.20846 -10.3257
RightFoot  -5.42501 -0.123335 1.69627
RightToes  1.16414e-010 0 -3.6325e-017
Spine  9.15329 -0.952661 -0.195312
Spine1  6.64907 -1.38127 1.59439
HEad  -18.5156 3.06177 -3.94372
LeftShoulder1  7.81345 -11.0379 -46.8677
LeftArm  -1.48684 23.8318 -28.9867
LeftForeArm  179.586 -63.3473 -161.339
LeftHand  -0.244104 0.0205437 5.32207
RightShoulder  5.48309 8.33988 40.1406
RightArm  13.2598 -32.0062 26.5709
RightForeArm  122.949 74.7401 136.172
RightHand  0.307198 -9.14142 -10.4497
LeftUpLeg  -0.453328 8.03421 -5.5737
LeftLeg  26.186 6.1514 3.65268
LeftFoot  -14.1663 0.225104 5.50014
LeftToes  -6.73059e-011 1.31891e-010 -1.28765e-011
118
root  -47.5004 40.882 -7.04216 45.1136 -88.911 -49.3872
RightUpLeg  -18.3824 -1.95127 -2.88075
RightLeg  37.47 -6.88814 -5.9731
RightFoot  -6.19588 -0.206971 3.62351
RightToes  1.16414e-010 0 -3.6325e-017
Spine  7.75995 -2.13475 -0.418862
Spine1  4.48746 -2.919 2.76322
HEad  -16.744 5.98234 -4.84533
LeftShoulder1  7.35028 -10.7089 -45.0517
LeftArm  2.421 22.8454 -30.2435
LeftForeArm  -179.369 -62.1775 -162.309
LeftHand  -0.244104 0.0205437 5.32207
RightShoulder  4.76511 7.73831 36.4023
RightArm  17.4334 -36.8482 23.7313
RightForeArm  128.33 72.2385 143.516
RightHand  0.311285 -9.91294 -9.08409
LeftUpLeg  3.1548 10.8398 -3.39469
LeftLeg  20.9302 3.24362 1.6981
LeftFoot  -9.04782 0.0243201 2.29977
LeftToes  -6.73059e-011 1.31891e-010 -1.28765e-011
119
root  -49.4867 41.4883 -6.97362 82.7041 -88.9966 -85.202
RightUpLeg  -18.3398 -6.03158 -0.509809
RightLeg  23.0671 -4.57907 -2.27182
RightFoot  -6.39302 -0.264952 5.12155
RightToes  1.16414e-010 0 -3.6325e-017
Spine  6.05507 -3.16649 0.94997
Spine1  1.75742 -3.60163 1.60802
HEad  -13.6035 8.27401 -4.81238
LeftShoulder1  6.87836 -10.5182 -42.6209
LeftArm  5.89964 22.4019 -30.9585
LeftForeArm  -178.403 -61.3137 -162.996
LeftHand  -0.244104 0.0205437 5.32207
RightShoulder  4.29073 7.6732 32.4601
RightArm  18.9548 -42.6478 22.828
RightForeArm  136.336 70.6373 147.737
RightHand  0.276195 -11.2375 -6.3837
LeftUpLeg  5.21148 13.9911 -1.53072
LeftLeg  18.4139 0.0620573 0.254042
LeftFoot  -3.79826 0.172486 -2.33894
LeftToes  -6.73059e-011 1.31891e-010 -1.28765e-011
120
root  -51.4068 41.6718 -6.89152 100.844 -88.8154 -102.589
RightUpLeg  -17.6592 -8.65289 1.25542
RightLeg  12.6579 -3.87468 0.537045
RightFoot  -8.21755 -0.209286 5.69409
RightToes  1.16414e-010 0 -3.6325e-017
Spine  4.57772 -3.80618 2.85486
Spine1  1.06253 -3.89584 0.248953
HEad  -11.4903 9.50264 -4.62685
LeftShoulder1  6.60076 -10.6578 -40.3399
LeftArm  7.93003 20.8698 -31.8755
LeftForeArm  -177.243 -60.4965 -163.645
LeftHand  -0.244104 0.0205437 5.32207
RightShoulder  3.95133 7.86129 28.778
RightArm  18.4539 -47.4602 22.4216
RightForeArm  142.033 69.0009 151.077
RightHand  0.218909 -11.2347 -5.34734
LeftUpLeg  6.07083 14.829 -0.228616
LeftLeg  20.9196 0.782011 0.707157
LeftFoot  -2.0814 0.465882 -5.72254
LeftToes  -6.73059e-011 1.31891e-010 -1.28765e-011
121
root  -53.2092 41.397 -6.86993 77.956 -88.976 -80.4385
RightUpLeg  -16.0533 -5.08307 0.436628
RightLeg  7.42337 -8.46165 2.96605
RightFoot  -10.8028 -0.108341 6.35816
RightToes  1.16414e-010 0 -3.6325e-017
Spine  4.08122 -4.05832 3.09977
Spine1  2.52514 -4.1404 0.349325
HEad  -10.9524 9.51197 -4.68002
LeftShoulder1  6.29521 -10.7442 -38.0179
LeftArm  8.86852 17.2682 -33.536
LeftForeArm  -177.33 -60.7377 -163.475
LeftHand  -0.244104 0.0205437 5.32207
RightShoulder  3.5563 7.87757 25.1307
RightArm  16.4412 -50.5295 22.8993
RightForeArm  143.296 67.495 153.252
RightHand  0.260616 -11.1928 -6.16428
LeftUpLeg  6.24747 13.8086 0.623888
LeftLeg  28.7178 5.0572 3.40597
LeftFoot  -4.38873 0.404654 -6.14327
LeftToes  -6.73059e-011 1.31891e-010 -1.28765e-011
122
root  -54.9353 40.7161 -6.90665 37.9147 -88.9878 -41.8526
RightUpLeg  -15.3393 -4.78897 0.878951
RightLeg  8.12404 -8.11842 3.08852
RightFoot  -9.89004 -0.129163 5.62125
RightToes  1.16414e-010 0 -3.6325e-017
Spine  4.23857 -4.00438 2.78731
Spine1  4.72884 -4.10852 0.812923
HEad  -10.8998 8.59166 -4.72774
LeftShoulder1  5.72103 -10.1293 -35.867
LeftArm  9.77962 11.3938 -35.3038
LeftForeArm  -179.096 -62.4307 -162.138
LeftHand  -0.244104 0.0205437 5.32207
RightShoulder  3.19266 7.77413 22.0398
RightArm  12.736 -53.0643 24.0932
RightForeArm  145.334 66.3776 154.808
RightHand  0.277494 -12.096 -5.74798
LeftUpLeg  6.08304 12.9535 1.90767
LeftLeg  39.1397 8.42848 7.65015
LeftFoot  -7.02185 0.223059 -4.82414
LeftToes  -6.73059e-011 1.31891e-010 -1.28765e-011
123
root  -56.5932 39.8071 -6.89675 51.1828 -88.0246 -56.6246
RightUpLeg  -16.7223 -8.00088 3.79358
RightLeg  14.8174 -3.96118 1.71848
RightFoot  -4.87109 -0.0546601 0.874245
RightToes  1.16414e-010 0 -3.6325e-017
Spine  4.94033 -3.7937 5.36863
Spine1  6.25483 -3.41203 -0.376321
HEad  -11.055 7.17687 -4.34767
LeftShoulder1  5.13007 -8.9981 -34.971
LeftArm  10.6164 4.40678 -36.3899
LeftForeArm  -179.857 -64.5178 -160.441
LeftHand  -0.244104 0.0205437 5.32207
RightShoulder  3.03114 7.61163 20.9313
RightArm  8.96459 -55.0379 23.1447
RightForeArm  147.968 65.4155 156.153
RightHand  0.240123 -12.5888 -4.79108
LeftUpLeg  5.44381 11.8544 4.65182
LeftLeg  49.4758 8.49974 10.867
LeftFoot  -7.66915 0.162472 -3.66537
LeftToes  -6.73059e-011 1.31891e-010 -1.28765e-011
124
root  -58.1358 38.8508 -6.81714 72.8175 -85.8491 -79.7616
RightUpLeg  -19.3731 -12.5487 8.55884
RightLeg  24.8252 0.873857 -0.165254
RightFoot  -1.36129 0.492411 -6.04263
RightToes  1.16414e-010 0 -3.6325e-017
Spine  6.57105 -3.89515 10.1387
Spine1  6.69909 -2.74155 -2.13985
HEad  -12.5322 6.16977 -3.68295
LeftShoulder1  5.03137 -8.38877 -36.1861
LeftArm  9.966 -0.805653 -36.6143
LeftForeArm  -177.001 -66.0696 -159.364
LeftHand  -0.244104 0.0205437 5.32207
RightShoulder  3.05584 7.08395 22.6466
RightArm  7.13439 -53.0702 18.359
RightForeArm  144.185 65.5768 155.57
RightHand  0.382479 -12.362 -7.237
LeftUpLeg  3.95505 9.60436 8.34536
LeftLeg  58.8047 6.31717 11.618
LeftFoot  -7.68683 0.146022 -3.12399
LeftToes  -6.73059e-011 1.31891e-010 -1.28765e-011
125
root  -59.5036 38.0913 -6.78846 70.8845 -83.7048 -79.126
RightUpLeg  -20.7637 -10.6292 10.2926
RightLeg  33.935 -2.18213 -1.83779
RightFoot  -3.79844 0.623999 -9.79588
RightToes  1.16414e-010 0 -3.6325e-017
Spine  8.76253 -4.44555 11.7746
Spine1  6.72603 -3.3556 -0.523633
HEad  -15.3657 6.40037 -3.78786
LeftShoulder1  5.76941 -8.94096 -40.0446
LeftArm  7.1849 -1.56819 -35.1895
LeftForeArm  -173.237 -67.3769 -158.484
LeftHand  -0.244104 0.0205437 5.32207
RightShoulder  3.21763 6.37974 26.4919
RightArm  4.58513 -44.9321 13.7484
RightForeArm  136.331 68.4982 150.938
RightHand  0.67453 -13.1287 -10.7082
LeftUpLeg  1.13963 6.16855 10.9435
LeftLeg  66.4729 4.22749 11.3015
LeftFoot  -8.51362 0.124349 -2.98015
LeftToes  -6.73059e-011 1.31891e-010 -1.28765e-011
